<svg xmlns="http://www.w3.org/2000/svg" version="1.1" xmlns:xlink="http://www.w3.org/1999/xlink" xmlns:svgjs="http://svgjs.dev/svgjs" width="1000" height="750" viewBox="0 0 1000 750"><rect width="1000" height="750" fill="#ffffff"></rect><g transform="matrix(0.5191111111111111,0,0,0.5191111111111111,240.44444444444446,83)"><svg viewBox="0 0 320 360" data-background-color="#ffffff" preserveAspectRatio="xMidYMid meet" height="1125" width="1000" xmlns="http://www.w3.org/2000/svg" xmlns:xlink="http://www.w3.org/1999/xlink"><g id="tight-bounds" transform="matrix(1,0,0,1,0,0)"><svg viewBox="0 0 320 360" height="360" width="320"><g><svg></svg></g><g><svg viewBox="0 0 320 360" height="360" width="320"><g><path xmlns="http://www.w3.org/2000/svg" d="M219.58 41.008c0.707 0 6.365 2.829 9.547 3.89-1.061 0.354-3.536-0.707-6.365-1.768 0.707 0 2.122 0.354 3.536 1.06-0.707-0.707-6.011-2.475-6.718-3.182M166.895 30.047c1.061-0.354 13.436 1.414 19.094 1.768 0.354-0.354-0.707-0.354-2.122-0.707 1.768-0.354 5.304 0.707 7.779 1.06-7.425 0.354-15.558-1.768-22.629-1.06-2.475 0-0.707-0.707-2.122-1.061M156.641 30.047c6.365 0 11.315 0 2.121 0.707-1.061-0.354-2.475-0.354-2.121-0.707M256.707 59.395c0.707 0 3.536 3.182 4.95 4.243-0.354 0.354-3.182-2.475-4.596-3.536 0.354 0.354 0 0-0.354-0.707M249.635 54.798c-2.829-2.475-3.889-2.475-4.243-3.889 2.475 1.414 4.243 2.829 4.243 3.889M204.022 32.522c0.354-0.354 1.061 0.354 2.829 0.707-2.122-0.354-1.768 0-1.061 0.707-2.475-0.354-3.182-0.707-2.475-1.414 1.414 0.707 1.768 0.354 0.707 0M103.602 36.765c0-0.354 1.414-1.061 2.475-1.414-1.061 0.707-0.707 1.061 1.061 0.353 0 0.354-2.122 1.061-3.536 1.768 0.707-0.354 1.414-1.414 0-0.707M211.094 28.986c-1.061 0.354-4.95-1.768-8.84-2.475-2.122-0.707 8.486 1.768 8.84 2.475M2.475 203.66c2.122 8.84 0.707 8.486 0 0M2.829 150.621c0.354-1.414 0.707-5.304 1.06-4.95-1.061 8.486-2.829 12.376-3.182 18.74 1.061-5.657-0.354 3.182-0.707 5.304 0.354 2.829 0.354-1.768 1.061-1.06 0.707 1.061-1.414 15.912-0.707 7.779-0.707 7.425 0 15.558 1.414 17.679-1.768 11.315 7.072 36.773 8.84 42.077 0.354 0.354 0-1.768 0.707-0.353 0.707 4.597 3.889 7.779 4.95 12.729 1.061 1.414 5.304 9.193 6.011 10.962 1.414 2.829 2.122 2.475 3.536 5.303 4.243 8.133 10.961 15.912 17.326 23.337 20.508 24.044 51.978 43.845 86.984 50.918 35.006 7.425 71.779 2.122 100.419-11.669 1.768-1.061 1.414-1.414 3.536-2.122 9.901-3.182 21.923-13.436 28.641-17.326 3.182-3.536 11.669-9.547 12.73-13.082 6.011-4.95 12.022-13.083 15.204-18.387 1.768-2.829 3.182-2.829 3.889-4.597-0.354 0 5.657-7.425 7.426-11.668-0.707 0-1.768 2.122-1.768 0 12.729-24.398 19.801-57.282 15.911-79.912 0.707 27.934-6.365 59.05-19.801 78.851-6.011 12.729-18.387 26.519-29.701 36.42-1.768 1.768-3.536 3.889-5.658 5.304-6.718 5.657-14.144 10.254-21.922 14.497-18.387 10.254-38.895 19.094-62.94 19.447 41.37-3.536 78.497-24.398 99.006-49.856-15.558 15.204-22.276 21.215-39.602 30.055-1.414 2.475-13.083 7.425-20.862 9.547 4.597-2.122 14.144-5.657 17.326-8.486-25.812 12.376-54.453 19.448-81.326 15.558 10.254 0 24.751 0.354 38.541-2.121 2.122-0.707 3.182-1.414 5.658-1.768 26.873-6.011 52.685-19.094 71.072-37.481-10.608 9.547-26.519 20.862-36.774 24.398 9.547-5.304 26.873-15.558 32.53-23.337-11.315 11.315-32.53 22.63-45.966 27.58-2.122 0.354 1.414-1.414-2.122 0-4.243 1.061-2.475 1.061-3.536 1.768-16.265 4.597-35.006 8.486-50.563 7.072-2.829-0.354-3.889-1.061-6.365-1.061-2.829-0.354-5.304-0.354-8.486-0.354-12.376-1.414-25.812-6.365-35.713-10.607-5.304-2.475-10.608-4.243-15.912-7.426-4.243-2.475-7.779-5.304-11.314-8.132-13.436-9.901-24.751-19.801-35.36-33.945-19.094-26.519-28.994-59.757-27.58-92.641 1.414-32.884 14.497-65.061 35.359-88.752-1.061 1.061 1.414-2.475 3.536-4.596 0 0.707-0.354 1.768 2.122-0.707 2.122-2.475-0.707-0.707 0.353-2.122 21.923-24.044 60.111-43.492 99.36-44.199 1.414-1.061 3.889-2.475 6.718-1.768 0 0.354-1.768 0.354-1.768 0.354 3.889-0.354 7.425-0.354 9.193 0.353 0.354-0.354-1.414-0.707 0-0.707 2.475 0.707 3.182 0 4.597 0.707-1.061 0-2.122 0-2.829 0.354 8.84 0 14.497 2.122 23.337 2.829-4.597-1.061-5.657-1.061-9.193-2.122 3.889 0.707 5.657 1.414 7.425 1.061-0.707 0-0.354-1.061 0.354-0.707 7.072 1.768 7.779 2.475 15.204 4.95 0.707-0.707-3.182-1.061-4.243-2.122 7.072 2.475 13.436 4.243 17.68 7.072-1.414-1.061-5.657-2.475-8.84-3.889-0.354 0.354 1.061 0.707 1.414 1.414-3.536-1.768-8.486-3.536-13.436-4.243 4.243 1.061 7.072 2.475 8.84 3.182-3.889-0.707-8.84-3.182-14.498-4.243 9.193 2.829 26.519 9.193 37.127 14.851-3.889-2.475-8.486-4.243-10.961-5.657 2.122 0.354 4.597 1.768 4.597 1.06 2.475 1.061 5.657 3.536 7.425 3.89-3.182-2.122-9.547-5.304-11.668-6.365 26.519 12.022 50.21 32.177 65.414 57.989 1.414 2.475 3.536 8.133 5.304 8.84-0.354-1.768-1.768-2.829-3.182-5.657 0.707 0 0.707-1.061 0-2.122-1.414-1.768 0 1.414-1.415-0.354-6.365-11.669-14.144-21.923-26.165-33.237 6.718 6.365 1.768 1.768 0.353-0.354 9.193 8.133 19.801 21.923 24.398 28.995-0.707-1.061-1.061-1.768-0.707-1.768 8.486 14.497 13.79 27.58 19.094 46.32 0.354 0.354 0-1.414 0.707-0.353 3.536 14.851 4.597 27.227 4.243 38.541 2.829-19.094-3.536-48.796-14.851-72.133-1.414-2.829-1.414-0.707-2.829-3.889 0-1.061-1.061-3.182-1.768-4.597-14.144-23.337-31.47-39.956-51.978-53.038 1.414 0.707 4.243 2.829 4.244 2.475-38.188-25.105-82.387-28.641-118.807-20.862-2.475 1.061-3.536 2.122-6.365 3.536 5.304-1.768 8.486-2.122 13.437-3.183 1.061-1.061-4.597 0.354-2.122-0.707 0.354 0.354 4.95-0.707 6.011-0.353 0 0.354-1.414 0.707-1.768 1.06 11.669-2.475 23.691-2.829 33.945-2.121-6.011 0.354-16.972-0.707-20.508 1.061 3.536-0.354 8.486-0.707 11.668-0.354-4.243 0-12.022 0.354-15.558 0.707-0.354-0.354 5.657-1.061 1.768-1.06-1.768 0.354-4.597 0.354-5.657 1.414-30.409 2.829-60.111 18.74-80.973 37.481-4.243 3.536-9.193 7.425-12.375 11.314-7.779 8.84-12.729 17.68-18.387 25.459 3.536-7.425 11.315-18.74 20.508-28.287 9.193-9.547 19.094-17.68 24.398-21.923 0 1.414 8.486-5.304 11.669-7.425-2.122 1.768 1.414-0.707 2.121-0.354 11.315-6.718 20.508-9.193 30.763-13.083-2.475 0.707-4.597 1.414-4.951 1.061 2.475-0.707 3.889-1.414 3.536-1.768-9.901 2.829-25.459 9.547-37.834 16.972 22.276-15.204 50.564-24.398 78.497-24.751 27.934-0.707 55.16 6.365 76.729 17.68 14.497 6.365 28.287 18.033 39.249 29.348 3.182 2.829 0.707-0.707 5.304 4.243-1.414-0.707-2.475-1.414-0.707 0.707 2.829 3.182-0.707-2.475 3.889 3.182-0.354 0-1.768-1.768-1.768-1.061 12.376 10.961 21.923 30.762 27.58 43.846-1.414-5.304-4.95-12.729-7.779-18.033 8.486 15.558 11.315 24.751 14.851 38.541 1.414 1.061-0.707-4.95 0.707-2.121 0.354 2.122 0.707 8.84 2.122 9.9-1.061-6.718-2.829-14.851-4.243-16.265 1.061 0.707-1.768-8.133-3.536-10.254-0.707-5.657-5.657-15.558-9.901-22.984-15.204-29.702-42.431-54.099-72.839-67.536 0-0.707-1.768-1.414-2.476-2.121-30.055-12.729-66.122-16.265-100.773-8.133-35.006 8.486-67.889 28.641-91.227 57.636 1.061-3.536 9.901-10.254 10.255-13.083-10.254 10.961-21.215 25.459-28.641 41.016-7.779 15.558-12.022 31.47-13.79 43.138" fill="#000000" fill-rule="nonzero" stroke="none" stroke-width="1" stroke-linecap="butt" stroke-linejoin="miter" stroke-miterlimit="10" stroke-dasharray="" stroke-dashoffset="0" font-family="none" font-weight="none" font-size="none" text-anchor="none" style="mix-blend-mode: normal" data-fill-palette-color="tertiary"></path></g><g transform="matrix(1,0,0,1,48,140.2697815917114)"><svg viewBox="0 0 224 79.46043681657723" height="79.46043681657723" width="224"><g><svg viewBox="0 0 390.24159999999995 138.432" height="79.46043681657723" width="224"><g transform="matrix(1,0,0,1,166.24159999999998,45.65612944983818)"><svg viewBox="0 0 224 47.11974110032362" height="47.11974110032362" width="224"><g><svg viewBox="0 0 224 47.11974110032362" height="47.11974110032362" width="224"><g><svg viewBox="0 0 224 47.11974110032362" height="47.11974110032362" width="224"><g transform="matrix(1,0,0,1,0,0)"><svg width="224" viewBox="-0.6500000357627869 -39 185.38999938964844 39" height="47.11974110032362" data-palette-color="#000000"><path d="M26.2-8.65L25.05-11.65 10.9-11.65Q8.55-6.35 8.55-4.3L8.55-4.3Q8.55-2.8 9.68-2.4 10.8-2 13.05-2L13.05-2 13.05 0-0.65 0-0.65-2Q0.55-2.15 1.43-2.4 2.3-2.65 2.98-3.1 3.65-3.55 4.15-4.28 4.65-5 5.1-6.05L5.1-6.05 18.25-39 21.95-39 33.9-9.8Q34.95-7.25 35.68-5.8 36.4-4.35 37.23-3.58 38.05-2.8 39.13-2.5 40.2-2.2 41.9-2.05L41.9-2.05 41.9 0 23 0 23-2.05Q25.4-2.15 26.45-2.55 27.5-2.95 27.5-4.15L27.5-4.15Q27.5-4.85 27.15-5.95 26.8-7.05 26.2-8.65L26.2-8.65ZM18-29.8L12.05-14.65 23.95-14.65 18.2-29.8 18-29.8ZM61.35 0L42.1 0 42.1-2Q43.8-2.05 44.82-2.3 45.85-2.55 46.42-3.15 47-3.75 47.2-4.85 47.4-5.95 47.4-7.7L47.4-7.7 47.4-30.8Q47.4-32.55 47.25-33.63 47.1-34.7 46.62-35.33 46.15-35.95 45.32-36.18 44.5-36.4 43.15-36.5L43.15-36.5 43.15-38.5 59.2-38.5Q66.75-38.5 70.82-36.08 74.9-33.65 74.9-29.15L74.9-29.15Q74.9-23.2 66.35-20.75L66.35-20.75 66.35-20.55Q69.1-20.55 71.32-19.78 73.55-19 75.1-17.6 76.65-16.2 77.5-14.3 78.35-12.4 78.35-10.15L78.35-10.15Q78.35-7.6 77.12-5.7 75.9-3.8 73.6-2.5L73.6-2.5Q69.15 0 61.35 0L61.35 0ZM61.7-3.05L61.7-3.05Q69.75-3.05 69.75-10.3L69.75-10.3Q69.75-14.75 66.85-16.8L66.85-16.8Q65.35-17.85 62.97-18.3 60.6-18.75 57.15-18.75L57.15-18.75 54.75-18.75 54.75-8.75Q54.75-5.65 56.35-4.35 57.95-3.05 61.7-3.05ZM54.75-21.75L57.7-21.75Q59.95-21.75 61.6-22.18 63.25-22.6 64.4-23.4L64.4-23.4Q66.8-25.05 66.8-28.55L66.8-28.55Q66.8-32.2 65-33.83 63.2-35.45 59.2-35.45L59.2-35.45 55.65-35.45Q54.75-35.45 54.75-34.6L54.75-34.6 54.75-21.75ZM99.95-2L99.95 0 82.1 0 82.1-2Q83.8-2.05 84.82-2.33 85.85-2.6 86.4-3.35 86.95-4.1 87.15-5.48 87.35-6.85 87.35-9.2L87.35-9.2 87.35-29.3Q87.35-31.4 87.17-32.77 87-34.15 86.5-34.95 86-35.75 85.07-36.08 84.15-36.4 82.6-36.5L82.6-36.5 82.6-38.5 99.45-38.5 99.45-36.5Q97.9-36.4 96.97-36.08 96.05-35.75 95.55-34.95 95.05-34.15 94.87-32.77 94.7-31.4 94.7-29.3L94.7-29.3 94.7-9.2Q94.7-6.85 94.87-5.48 95.05-4.1 95.62-3.35 96.2-2.6 97.22-2.33 98.25-2.05 99.95-2L99.95-2ZM116.09-14.65L116.09-8.05Q116.09-6.15 116.27-5 116.44-3.85 116.94-3.2 117.44-2.55 118.37-2.3 119.29-2.05 120.84-2L120.84-2 120.84 0 103.49 0 103.49-2Q105.14-2.05 106.19-2.3 107.24-2.55 107.79-3.15 108.34-3.75 108.54-4.85 108.74-5.95 108.74-7.7L108.74-7.7 108.74-30.8Q108.74-32.5 108.57-33.6 108.39-34.7 107.89-35.3 107.39-35.9 106.47-36.15 105.54-36.4 104.04-36.5L104.04-36.5 104.04-38.5 121.29-38.5 121.29-36.5Q119.59-36.45 118.57-36.2 117.54-35.95 116.99-35.3 116.44-34.65 116.27-33.5 116.09-32.35 116.09-30.45L116.09-30.45 116.09-19.35 129.04-33.25Q130.19-34.5 130.19-35.35L130.19-35.35Q130.19-35.9 129.47-36.2 128.74-36.5 126.79-36.5L126.79-36.5 126.79-38.5 140.44-38.5 140.44-36.55Q139.34-36.5 138.52-36.35 137.69-36.2 136.87-35.7 136.04-35.2 135.02-34.27 133.99-33.35 132.49-31.8L132.49-31.8 123.59-22.5 138.29-4.6Q139.34-3.3 140.62-2.7 141.89-2.1 143.89-2L143.89-2 143.89 0 125.39 0 125.39-2Q127.44-2.05 128.34-2.35 129.24-2.65 129.24-3.35L129.24-3.35Q129.24-3.6 129.17-3.83 129.09-4.05 128.92-4.38 128.74-4.7 128.39-5.18 128.04-5.65 127.44-6.35L127.44-6.35 118.59-17.25 116.09-14.65ZM169.04-8.65L167.89-11.65 153.74-11.65Q151.39-6.35 151.39-4.3L151.39-4.3Q151.39-2.8 152.52-2.4 153.64-2 155.89-2L155.89-2 155.89 0 142.19 0 142.19-2Q143.39-2.15 144.27-2.4 145.14-2.65 145.82-3.1 146.49-3.55 146.99-4.28 147.49-5 147.94-6.05L147.94-6.05 161.09-39 164.79-39 176.74-9.8Q177.79-7.25 178.52-5.8 179.24-4.35 180.07-3.58 180.89-2.8 181.97-2.5 183.04-2.2 184.74-2.05L184.74-2.05 184.74 0 165.84 0 165.84-2.05Q168.24-2.15 169.29-2.55 170.34-2.95 170.34-4.15L170.34-4.15Q170.34-4.85 169.99-5.95 169.64-7.05 169.04-8.65L169.04-8.65ZM160.84-29.8L154.89-14.65 166.79-14.65 161.04-29.8 160.84-29.8Z" opacity="1" transform="matrix(1,0,0,1,0,0)" fill="#000000" class="undefined-text-0" data-fill-palette-color="primary" id="text-0"></path></svg></g></svg></g></svg></g></svg></g><g><svg viewBox="0 0 138.432 138.432" height="138.432" width="138.432"><g><svg viewBox="0 0 138.432 138.432" height="138.432" width="138.432"><g transform="matrix(1,0,0,1,36.587264688927945,36.587264688927945)"><svg viewBox="0 0 65.2574706221441 65.2574706221441" height="65.2574706221441" width="65.2574706221441"><g><svg xmlns="http://www.w3.org/2000/svg" data-name="Layer 1" viewBox="1.149999976158142 1.1499998569488525 97.69999694824219 97.69999694824219" x="0" y="0" height="65.2574706221441" width="65.2574706221441" class="icon-c-0" data-fill-palette-color="accent" id="c-0"><path d="M50 98.85A48.85 48.85 0 1 0 1.15 50 48.91 48.91 0 0 0 50 98.85ZM63.95 85.53a41.56 41.56 0 0 0 5.88-11 71 71 0 0 1 7.63 2A38.3 38.3 0 0 1 63.95 85.53ZM82.07 70.67a72.69 72.69 0 0 0-10.24-2.92 75.2 75.2 0 0 0 1.92-14.27H88A37.92 37.92 0 0 1 82.07 70.67ZM88 46.52H73.75a75.17 75.17 0 0 0-1.92-14.27 72.62 72.62 0 0 0 10.24-2.92A37.91 37.91 0 0 1 88 46.52Zm-10.56-23a71 71 0 0 1-7.63 2 41.56 41.56 0 0 0-5.88-11A38.29 38.29 0 0 1 77.46 23.51Zm-24-9.17c3.45 1.79 6.8 6.11 9.29 12.31-2.94 0.36-6 0.59-9.29 0.68Zm0 20a108.22 108.22 0 0 0 11.46-0.89 67.29 67.29 0 0 1 1.84 13.1H53.48Zm0 19.18h13.3a67.28 67.28 0 0 1-1.84 13.1 108.22 108.22 0 0 0-11.46-0.89Zm0 19.18c3.24 0.09 6.35 0.32 9.29 0.68-2.49 6.2-5.84 10.52-9.29 12.31ZM22.77 76.73a68.64 68.64 0 0 1 7.48-2.06 41.38 41.38 0 0 0 5.81 10.86A38.29 38.29 0 0 1 22.77 76.73Zm23.74 8.93c-3.43-1.78-6.76-6.06-9.24-12.2 2.92-0.38 6-0.65 9.24-0.76Zm0-19.93a107 107 0 0 0-11.42 1 67.17 67.17 0 0 1-1.87-13.22h13.3Zm0-19.21H33.22A67.17 67.17 0 0 1 35.09 33.3a106.9 106.9 0 0 0 11.42 1Zm0-32.17v13c-3.23-0.12-6.32-0.38-9.24-0.76C39.76 20.4 43.09 16.12 46.52 14.34Zm-10.46 0.13a41.38 41.38 0 0 0-5.81 10.86 68.62 68.62 0 0 1-7.48-2.06A38.29 38.29 0 0 1 36.06 14.47ZM18.12 29a70.27 70.27 0 0 0 10.1 3 75 75 0 0 0-2 14.46H12A37.92 37.92 0 0 1 18.12 29Zm8.13 24.45a75 75 0 0 0 2 14.46 70.26 70.26 0 0 0-10.1 3A37.92 37.92 0 0 1 12 53.48Z" fill="#000000" data-fill-palette-color="accent"></path></svg></g></svg></g><path d="M13.928 47.241L12.808 47.227 10.996 51.815C11.939 52.773 12.633 53.34 13.078 53.515V53.515C13.399 53.642 13.651 53.602 13.832 53.395 14.016 53.182 14.204 52.835 14.394 52.353V52.353L15.043 52.609 13.289 57.048 12.641 56.792C12.712 56.52 12.758 56.278 12.778 56.064 12.796 55.857 12.788 55.661 12.753 55.476 12.713 55.289 12.637 55.112 12.524 54.946 12.407 54.771 12.253 54.593 12.061 54.41V54.41L3.068 45.93 3.544 44.725 14.533 44.598C15.173 44.587 15.682 44.563 16.061 44.527 16.437 44.497 16.744 44.425 16.981 44.312 17.219 44.198 17.417 44.041 17.575 43.839 17.729 43.629 17.894 43.348 18.069 42.995V42.995L18.736 43.259 16.317 49.384 15.649 49.121C15.836 48.595 15.931 48.2 15.935 47.937 15.939 47.675 15.811 47.492 15.551 47.389V47.389C15.397 47.328 15.186 47.292 14.92 47.279 14.65 47.258 14.319 47.245 13.928 47.241ZM6.02 47.192L10.17 51.06 11.696 47.195 6.045 47.127ZM38.399 22.69L32.81 26.395 32.425 25.813C32.744 25.586 32.989 25.384 33.159 25.207 33.325 25.025 33.425 24.84 33.458 24.65 33.492 24.46 33.457 24.245 33.352 24.003 33.252 23.767 33.089 23.48 32.865 23.142V23.142L28.417 16.432C28.193 16.094 27.997 15.829 27.83 15.637 27.667 15.451 27.498 15.328 27.323 15.269 27.148 15.209 26.965 15.211 26.776 15.273 26.591 15.331 26.361 15.44 26.084 15.6V15.6L25.698 15.018 30.366 11.924C31.827 10.955 33.105 10.443 34.2 10.387 35.304 10.332 36.145 10.743 36.725 11.617V11.617C37.489 12.769 37.199 14.129 35.855 15.697V15.697L35.894 15.755C36.425 15.403 36.957 15.158 37.488 15.021 38.022 14.89 38.529 14.861 39.008 14.934 39.483 15.001 39.926 15.166 40.338 15.426 40.741 15.685 41.088 16.034 41.378 16.471V16.471C41.704 16.964 41.874 17.473 41.888 17.998 41.892 18.521 41.754 19.059 41.475 19.611V19.611C40.936 20.661 39.911 21.687 38.399 22.689ZM37.91 21.735V21.735C39.471 20.7 39.787 19.482 38.859 18.081V18.081C38.286 17.217 37.587 16.776 36.762 16.758V16.758C36.338 16.744 35.867 16.845 35.349 17.061 34.831 17.277 34.237 17.607 33.567 18.051V18.051L32.869 18.513 34.796 21.42C35.192 22.018 35.63 22.342 36.109 22.391 36.584 22.434 37.184 22.216 37.91 21.735ZM32.291 17.641L33.146 17.074C33.584 16.784 33.937 16.494 34.207 16.204 34.468 15.912 34.66 15.613 34.784 15.307V15.307C35.031 14.681 34.93 14.031 34.482 13.355V13.355C34.013 12.647 33.501 12.248 32.949 12.16 32.391 12.076 31.724 12.291 30.949 12.805V12.805L29.92 13.487C29.742 13.605 29.709 13.747 29.819 13.913V13.913ZM72.161 12.711L72.17 13.408 65.953 13.492 65.944 12.795C66.335 12.776 66.65 12.736 66.889 12.673 67.127 12.603 67.308 12.481 67.432 12.306 67.562 12.132 67.649 11.885 67.691 11.566 67.733 11.239 67.75 10.804 67.743 10.259V10.259L67.648 3.255C67.641 2.771 67.612 2.369 67.561 2.051 67.517 1.733 67.437 1.481 67.322 1.297 67.2 1.112 67.032 0.982 66.818 0.905 66.605 0.835 66.315 0.792 65.95 0.777V0.777L65.94 0.08 71.818 0 71.828 0.697C71.463 0.722 71.175 0.773 70.963 0.849 70.752 0.931 70.587 1.066 70.47 1.254 70.36 1.441 70.287 1.695 70.251 2.014 70.216 2.334 70.201 2.736 70.208 3.221V3.221L70.303 10.225C70.311 10.769 70.336 11.204 70.381 11.529 70.425 11.847 70.515 12.092 70.65 12.263 70.785 12.434 70.973 12.551 71.213 12.614 71.453 12.67 71.769 12.703 72.161 12.711ZM101.11 17.423L99.873 19.353C99.633 19.727 99.458 20.037 99.348 20.282 99.239 20.528 99.193 20.747 99.211 20.94 99.224 21.13 99.303 21.307 99.45 21.472 99.606 21.635 99.831 21.819 100.126 22.023V22.023L99.75 22.611 94.658 19.348 95.034 18.76C95.365 18.957 95.649 19.099 95.885 19.187 96.118 19.266 96.329 19.282 96.516 19.237 96.697 19.187 96.877 19.066 97.056 18.873 97.232 18.686 97.429 18.421 97.647 18.08V18.08L101.991 11.301C102.206 10.966 102.365 10.681 102.467 10.447 102.57 10.213 102.609 10.005 102.583 9.823 102.563 9.645 102.477 9.471 102.325 9.303 102.178 9.138 101.962 8.952 101.676 8.745V8.745L102.053 8.158 107.12 11.405 106.744 11.992C106.404 11.782 106.118 11.638 105.884 11.56 105.656 11.485 105.445 11.476 105.251 11.533 105.066 11.587 104.883 11.719 104.703 11.927 104.526 12.129 104.319 12.415 104.082 12.784V12.784L101.997 16.039 108.41 14.397C108.788 14.3 109.03 14.167 109.138 13.999V13.999C109.206 13.893 109.19 13.764 109.089 13.613 108.98 13.464 108.735 13.268 108.354 13.024V13.024L108.731 12.437 112.732 15.001 112.367 15.571C112.147 15.446 111.947 15.346 111.767 15.27 111.587 15.194 111.384 15.154 111.157 15.151 110.934 15.142 110.667 15.165 110.357 15.218 110.037 15.274 109.632 15.358 109.142 15.47V15.47L104.786 16.524 105.733 24.539C105.775 24.929 105.882 25.262 106.052 25.537 106.229 25.815 106.507 26.089 106.888 26.356V26.356L106.512 26.944 101.084 23.465 101.46 22.878C101.87 23.125 102.18 23.276 102.389 23.331 102.607 23.384 102.759 23.344 102.845 23.21V23.21C102.878 23.159 102.9 23.106 102.912 23.051 102.924 22.995 102.932 22.926 102.938 22.843 102.944 22.76 102.944 22.65 102.938 22.511 102.932 22.373 102.913 22.2 102.881 21.99V21.99L102.329 17.127ZM126.011 51.129L126.847 50.383 125.089 45.775C123.747 45.704 122.852 45.754 122.405 45.924V45.924C122.083 46.047 121.924 46.247 121.929 46.522 121.937 46.803 122.033 47.186 122.218 47.67V47.67L121.566 47.919 119.865 43.459 120.517 43.211C120.648 43.46 120.777 43.67 120.907 43.841 121.034 44.006 121.172 44.145 121.322 44.258 121.478 44.369 121.654 44.448 121.849 44.494 122.053 44.544 122.288 44.572 122.553 44.578V44.578L134.911 44.769 135.373 45.98 127.348 53.487C126.884 53.928 126.524 54.289 126.269 54.571 126.011 54.847 125.833 55.107 125.734 55.351 125.635 55.595 125.596 55.844 125.615 56.1 125.643 56.36 125.711 56.678 125.82 57.056V57.056L125.149 57.312 122.802 51.158 123.472 50.903C123.69 51.417 123.886 51.772 124.06 51.969 124.235 52.165 124.452 52.214 124.713 52.114V52.114C124.868 52.055 125.048 51.94 125.254 51.77 125.467 51.603 125.72 51.389 126.011 51.129ZM131.881 45.829L126.209 45.775 127.689 49.657 131.906 45.894ZM10.946 96.543L11.763 95.792 9.951 91.205C8.608 91.15 7.714 91.21 7.27 91.386V91.386C6.948 91.512 6.792 91.713 6.801 91.989 6.812 92.27 6.913 92.651 7.103 93.133V93.133L6.454 93.39 4.701 88.951 5.35 88.694C5.483 88.942 5.615 89.15 5.747 89.32 5.875 89.483 6.015 89.62 6.167 89.732 6.324 89.841 6.504 89.917 6.706 89.958 6.904 90.009 7.136 90.035 7.401 90.037V90.037L19.761 90.083 20.237 91.288 12.305 98.899C11.843 99.339 11.486 99.701 11.235 99.986 10.98 100.265 10.805 100.527 10.709 100.772 10.613 101.017 10.576 101.267 10.599 101.523 10.63 101.782 10.702 102.1 10.815 102.477V102.477L10.148 102.74 7.728 96.615 8.395 96.351C8.619 96.863 8.819 97.216 8.996 97.41 9.173 97.605 9.391 97.65 9.65 97.548V97.548C9.805 97.487 9.985 97.373 10.19 97.206 10.399 97.031 10.651 96.81 10.946 96.543ZM16.748 91.188L11.071 91.191 12.597 95.055 16.773 91.253ZM33.297 127.613L27.708 123.908 28.093 123.327C28.427 123.532 28.708 123.679 28.937 123.767 29.17 123.849 29.38 123.869 29.567 123.826 29.755 123.783 29.94 123.667 30.122 123.476 30.3 123.292 30.501 123.03 30.725 122.693V122.693L35.173 115.982C35.397 115.644 35.565 115.361 35.677 115.132 35.788 114.904 35.836 114.7 35.819 114.521 35.805 114.337 35.733 114.17 35.602 114.019 35.476 113.872 35.288 113.699 35.037 113.501V113.501L35.422 112.919 40.09 116.013C41.551 116.982 42.519 117.962 42.993 118.954 43.473 119.95 43.425 120.882 42.849 121.751V121.751C42.082 122.908 40.715 123.174 38.747 122.547V122.547L38.709 122.605C39.24 122.957 39.672 123.351 40.005 123.787 40.338 124.223 40.564 124.676 40.683 125.145 40.802 125.615 40.822 126.09 40.742 126.571 40.666 127.046 40.483 127.503 40.193 127.94V127.94C39.866 128.433 39.461 128.786 38.977 128.999 38.497 129.207 37.948 129.289 37.331 129.247V129.247C36.153 129.16 34.809 128.615 33.297 127.613ZM33.986 126.791V126.791C35.547 127.825 36.792 127.643 37.721 126.242V126.242C38.293 125.378 38.429 124.56 38.129 123.787V123.787C37.973 123.397 37.695 123.005 37.294 122.612 36.893 122.218 36.358 121.8 35.688 121.356V121.356L34.99 120.893 33.063 123.8C32.667 124.398 32.539 124.927 32.68 125.387 32.825 125.842 33.261 126.31 33.986 126.791ZM35.568 120.021L36.423 120.588C36.861 120.878 37.268 121.088 37.644 121.218 38.011 121.35 38.359 121.413 38.689 121.409V121.409C39.367 121.396 39.931 121.049 40.383 120.368V120.368C40.849 119.665 41.012 119.04 40.873 118.493 40.733 117.946 40.276 117.416 39.5 116.902V116.902L38.471 116.219C38.293 116.102 38.15 116.126 38.04 116.292V116.292ZM72.054 137.735L72.044 138.432 65.827 138.347 65.837 137.65C66.229 137.642 66.545 137.61 66.785 137.553 67.025 137.49 67.209 137.373 67.337 137.202 67.473 137.031 67.566 136.787 67.616 136.468 67.667 136.144 67.697 135.709 67.704 135.164V135.164L67.799 128.16C67.806 127.675 67.788 127.273 67.746 126.954 67.71 126.634 67.637 126.381 67.527 126.193 67.41 126.006 67.246 125.871 67.034 125.788 66.823 125.712 66.534 125.658 66.17 125.627V125.627L66.179 124.93 72.057 125.009 72.048 125.707C71.689 125.729 71.399 125.774 71.179 125.845 70.965 125.921 70.797 126.052 70.675 126.236 70.56 126.421 70.48 126.672 70.436 126.99 70.392 127.309 70.366 127.71 70.36 128.195V128.195L70.264 135.199C70.257 135.744 70.271 136.179 70.306 136.505 70.342 136.824 70.425 137.071 70.556 137.246 70.686 137.42 70.87 137.542 71.109 137.612 71.347 137.675 71.662 137.716 72.054 137.735ZM100.586 124.369L101.822 126.298C102.062 126.673 102.271 126.961 102.448 127.164 102.625 127.366 102.805 127.499 102.988 127.563 103.165 127.631 103.359 127.633 103.571 127.568 103.784 127.495 104.045 127.367 104.354 127.184V127.184L104.731 127.772 99.638 131.035 99.262 130.447C99.579 130.228 99.827 130.03 100.005 129.853 100.174 129.673 100.277 129.489 100.314 129.3 100.345 129.115 100.31 128.9 100.209 128.657 100.112 128.419 99.954 128.13 99.736 127.789V127.789L95.392 121.01C95.177 120.674 94.985 120.411 94.815 120.22 94.642 120.023 94.467 119.899 94.291 119.846 94.121 119.789 93.929 119.798 93.716 119.871 93.505 119.936 93.244 120.051 92.933 120.219V120.219L92.557 119.632 97.624 116.385 98 116.972C97.672 117.198 97.423 117.401 97.254 117.581 97.091 117.756 96.992 117.942 96.959 118.136 96.935 118.333 96.978 118.554 97.088 118.799 97.202 119.05 97.377 119.36 97.613 119.729V119.729L99.699 122.984 100.887 116.472C100.953 116.082 100.934 115.807 100.83 115.644V115.644C100.758 115.533 100.635 115.493 100.459 115.527 100.274 115.559 99.991 115.696 99.611 115.94V115.94L99.235 115.353 103.245 112.783 103.616 113.362C103.401 113.508 103.224 113.649 103.083 113.787 102.939 113.918 102.816 114.084 102.715 114.283 102.623 114.484 102.533 114.738 102.447 115.046 102.364 115.36 102.271 115.763 102.168 116.255V116.255L101.306 120.653 108.983 123.142C109.355 123.267 109.704 123.307 110.031 123.263 110.352 123.223 110.714 123.086 111.116 122.852V122.852L111.493 123.439 106.065 126.917 105.688 126.33C106.084 126.061 106.35 125.842 106.488 125.675 106.627 125.499 106.654 125.344 106.568 125.21V125.21C106.536 125.159 106.497 125.117 106.452 125.083 106.412 125.046 106.353 125.009 106.274 124.972 106.201 124.932 106.101 124.886 105.973 124.834 105.844 124.782 105.679 124.726 105.475 124.667V124.667L100.826 123.137ZM129.006 92.622L127.896 92.625 126.138 97.233C127.092 98.18 127.793 98.739 128.24 98.91V98.91C128.562 99.033 128.813 98.99 128.992 98.781 129.174 98.566 129.357 98.216 129.542 97.732V97.732L130.194 97.981 128.492 102.44 127.841 102.191C127.909 101.919 127.952 101.676 127.97 101.462 127.985 101.254 127.974 101.059 127.938 100.874 127.896 100.687 127.814 100.51 127.693 100.343 127.58 100.172 127.427 99.996 127.233 99.816V99.816L118.142 91.442 118.603 90.232 129.593 89.967C130.23 89.954 130.738 89.927 131.116 89.887 131.492 89.852 131.798 89.777 132.034 89.661 132.271 89.545 132.467 89.385 132.622 89.181 132.774 88.969 132.936 88.686 133.107 88.332V88.332L133.777 88.587 131.429 94.741 130.759 94.485C130.939 93.957 131.03 93.561 131.031 93.298 131.031 93.036 130.901 92.854 130.641 92.755V92.755C130.485 92.696 130.276 92.658 130.012 92.643 129.739 92.631 129.404 92.624 129.006 92.622ZM121.111 92.66L125.303 96.488 126.784 92.606 121.136 92.595ZM1.851 71.303C1.851 68.436 4.176 66.112 7.043 66.112 9.91 66.112 12.235 68.436 12.235 71.303 12.235 74.171 9.91 76.495 7.043 76.495 4.176 76.495 1.851 74.171 1.851 71.303ZM126.197 71.303C126.197 68.436 128.522 66.112 131.389 66.112 134.256 66.112 136.581 68.436 136.581 71.303 136.581 74.171 134.256 76.495 131.389 76.495 128.522 76.495 126.197 74.171 126.197 71.303Z" fill="#000000" data-fill-palette-color="accent"></path></svg></g></svg></g></svg></g></svg></g></svg></g><defs></defs></svg><rect width="320" height="360" fill="none" stroke="none" visibility="hidden"></rect></g></svg></g></svg>