<svg xmlns="http://www.w3.org/2000/svg" version="1.1" xmlns:xlink="http://www.w3.org/1999/xlink" xmlns:svgjs="http://svgjs.dev/svgjs" width="1000" height="353" viewBox="0 0 1000 353"><g transform="matrix(1,0,0,1,-0.6060596070253155,0.38379727840398914)"><svg viewBox="0 0 396 140" data-background-color="#ffffff" preserveAspectRatio="xMidYMid meet" height="353" width="1000" xmlns="http://www.w3.org/2000/svg" xmlns:xlink="http://www.w3.org/1999/xlink"><g id="tight-bounds" transform="matrix(1,0,0,1,0.23999960438203516,-0.15221421806390367)"><svg viewBox="0 0 395.52 140.30442843612778" height="140.30442843612778" width="395.52"><g><svg viewBox="0 0 689.055168 244.43135999999998" height="140.30442843612778" width="395.52"><g transform="matrix(1,0,0,1,293.535168,80.61568)"><svg viewBox="0 0 395.52 83.2" height="83.2" width="395.52"><g><svg viewBox="0 0 395.52 83.2" height="83.2" width="395.52"><g><svg viewBox="0 0 395.52 83.2" height="83.2" width="395.52"><g transform="matrix(1,0,0,1,0,0)"><svg width="395.52" viewBox="-0.6500000357627869 -39 185.38999938964844 39" height="83.2" data-palette-color="#000000"><path d="M26.2-8.65L25.05-11.65 10.9-11.65Q8.55-6.35 8.55-4.3L8.55-4.3Q8.55-2.8 9.68-2.4 10.8-2 13.05-2L13.05-2 13.05 0-0.65 0-0.65-2Q0.55-2.15 1.43-2.4 2.3-2.65 2.98-3.1 3.65-3.55 4.15-4.28 4.65-5 5.1-6.05L5.1-6.05 18.25-39 21.95-39 33.9-9.8Q34.95-7.25 35.68-5.8 36.4-4.35 37.23-3.58 38.05-2.8 39.13-2.5 40.2-2.2 41.9-2.05L41.9-2.05 41.9 0 23 0 23-2.05Q25.4-2.15 26.45-2.55 27.5-2.95 27.5-4.15L27.5-4.15Q27.5-4.85 27.15-5.95 26.8-7.05 26.2-8.65L26.2-8.65ZM18-29.8L12.05-14.65 23.95-14.65 18.2-29.8 18-29.8ZM61.35 0L42.1 0 42.1-2Q43.8-2.05 44.82-2.3 45.85-2.55 46.42-3.15 47-3.75 47.2-4.85 47.4-5.95 47.4-7.7L47.4-7.7 47.4-30.8Q47.4-32.55 47.25-33.63 47.1-34.7 46.62-35.33 46.15-35.95 45.32-36.18 44.5-36.4 43.15-36.5L43.15-36.5 43.15-38.5 59.2-38.5Q66.75-38.5 70.82-36.08 74.9-33.65 74.9-29.15L74.9-29.15Q74.9-23.2 66.35-20.75L66.35-20.75 66.35-20.55Q69.1-20.55 71.32-19.78 73.55-19 75.1-17.6 76.65-16.2 77.5-14.3 78.35-12.4 78.35-10.15L78.35-10.15Q78.35-7.6 77.12-5.7 75.9-3.8 73.6-2.5L73.6-2.5Q69.15 0 61.35 0L61.35 0ZM61.7-3.05L61.7-3.05Q69.75-3.05 69.75-10.3L69.75-10.3Q69.75-14.75 66.85-16.8L66.85-16.8Q65.35-17.85 62.97-18.3 60.6-18.75 57.15-18.75L57.15-18.75 54.75-18.75 54.75-8.75Q54.75-5.65 56.35-4.35 57.95-3.05 61.7-3.05ZM54.75-21.75L57.7-21.75Q59.95-21.75 61.6-22.18 63.25-22.6 64.4-23.4L64.4-23.4Q66.8-25.05 66.8-28.55L66.8-28.55Q66.8-32.2 65-33.83 63.2-35.45 59.2-35.45L59.2-35.45 55.65-35.45Q54.75-35.45 54.75-34.6L54.75-34.6 54.75-21.75ZM99.95-2L99.95 0 82.1 0 82.1-2Q83.8-2.05 84.82-2.33 85.85-2.6 86.4-3.35 86.95-4.1 87.15-5.48 87.35-6.85 87.35-9.2L87.35-9.2 87.35-29.3Q87.35-31.4 87.17-32.77 87-34.15 86.5-34.95 86-35.75 85.07-36.08 84.15-36.4 82.6-36.5L82.6-36.5 82.6-38.5 99.45-38.5 99.45-36.5Q97.9-36.4 96.97-36.08 96.05-35.75 95.55-34.95 95.05-34.15 94.87-32.77 94.7-31.4 94.7-29.3L94.7-29.3 94.7-9.2Q94.7-6.85 94.87-5.48 95.05-4.1 95.62-3.35 96.2-2.6 97.22-2.33 98.25-2.05 99.95-2L99.95-2ZM116.09-14.65L116.09-8.05Q116.09-6.15 116.27-5 116.44-3.85 116.94-3.2 117.44-2.55 118.37-2.3 119.29-2.05 120.84-2L120.84-2 120.84 0 103.49 0 103.49-2Q105.14-2.05 106.19-2.3 107.24-2.55 107.79-3.15 108.34-3.75 108.54-4.85 108.74-5.95 108.74-7.7L108.74-7.7 108.74-30.8Q108.74-32.5 108.57-33.6 108.39-34.7 107.89-35.3 107.39-35.9 106.47-36.15 105.54-36.4 104.04-36.5L104.04-36.5 104.04-38.5 121.29-38.5 121.29-36.5Q119.59-36.45 118.57-36.2 117.54-35.95 116.99-35.3 116.44-34.65 116.27-33.5 116.09-32.35 116.09-30.45L116.09-30.45 116.09-19.35 129.04-33.25Q130.19-34.5 130.19-35.35L130.19-35.35Q130.19-35.9 129.47-36.2 128.74-36.5 126.79-36.5L126.79-36.5 126.79-38.5 140.44-38.5 140.44-36.55Q139.34-36.5 138.52-36.35 137.69-36.2 136.87-35.7 136.04-35.2 135.02-34.27 133.99-33.35 132.49-31.8L132.49-31.8 123.59-22.5 138.29-4.6Q139.34-3.3 140.62-2.7 141.89-2.1 143.89-2L143.89-2 143.89 0 125.39 0 125.39-2Q127.44-2.05 128.34-2.35 129.24-2.65 129.24-3.35L129.24-3.35Q129.24-3.6 129.17-3.83 129.09-4.05 128.92-4.38 128.74-4.7 128.39-5.18 128.04-5.65 127.44-6.35L127.44-6.35 118.59-17.25 116.09-14.65ZM169.04-8.65L167.89-11.65 153.74-11.65Q151.39-6.35 151.39-4.3L151.39-4.3Q151.39-2.8 152.52-2.4 153.64-2 155.89-2L155.89-2 155.89 0 142.19 0 142.19-2Q143.39-2.15 144.27-2.4 145.14-2.65 145.82-3.1 146.49-3.55 146.99-4.28 147.49-5 147.94-6.05L147.94-6.05 161.09-39 164.79-39 176.74-9.8Q177.79-7.25 178.52-5.8 179.24-4.35 180.07-3.58 180.89-2.8 181.97-2.5 183.04-2.2 184.74-2.05L184.74-2.05 184.74 0 165.84 0 165.84-2.05Q168.24-2.15 169.29-2.55 170.34-2.95 170.34-4.15L170.34-4.15Q170.34-4.85 169.99-5.95 169.64-7.05 169.04-8.65L169.04-8.65ZM160.84-29.8L154.89-14.65 166.79-14.65 161.04-29.8 160.84-29.8Z" opacity="1" transform="matrix(1,0,0,1,0,0)" fill="#000000" class="undefined-text-0" data-fill-palette-color="primary" id="text-0"></path></svg></g></svg></g></svg></g></svg></g><g><svg viewBox="0 0 244.43135999999998 244.43135999999998" height="244.43135999999998" width="244.43135999999998"><g><svg viewBox="0 0 244.43135999999998 244.43135999999998" height="244.43135999999998" width="244.43135999999998"><g transform="matrix(1,0,0,1,64.6026559364499,64.6026559364499)"><svg viewBox="0 0 115.22604812710016 115.22604812710016" height="115.22604812710016" width="115.22604812710016"><g><svg xmlns="http://www.w3.org/2000/svg" data-name="Layer 1" viewBox="1.149999976158142 1.1499998569488525 97.69999694824219 97.69999694824219" x="0" y="0" height="115.22604812710016" width="115.22604812710016" class="icon-c-0" data-fill-palette-color="accent" id="c-0"><path d="M50 98.85A48.85 48.85 0 1 0 1.15 50 48.91 48.91 0 0 0 50 98.85ZM63.95 85.53a41.56 41.56 0 0 0 5.88-11 71 71 0 0 1 7.63 2A38.3 38.3 0 0 1 63.95 85.53ZM82.07 70.67a72.69 72.69 0 0 0-10.24-2.92 75.2 75.2 0 0 0 1.92-14.27H88A37.92 37.92 0 0 1 82.07 70.67ZM88 46.52H73.75a75.17 75.17 0 0 0-1.92-14.27 72.62 72.62 0 0 0 10.24-2.92A37.91 37.91 0 0 1 88 46.52Zm-10.56-23a71 71 0 0 1-7.63 2 41.56 41.56 0 0 0-5.88-11A38.29 38.29 0 0 1 77.46 23.51Zm-24-9.17c3.45 1.79 6.8 6.11 9.29 12.31-2.94 0.36-6 0.59-9.29 0.68Zm0 20a108.22 108.22 0 0 0 11.46-0.89 67.29 67.29 0 0 1 1.84 13.1H53.48Zm0 19.18h13.3a67.28 67.28 0 0 1-1.84 13.1 108.22 108.22 0 0 0-11.46-0.89Zm0 19.18c3.24 0.09 6.35 0.32 9.29 0.68-2.49 6.2-5.84 10.52-9.29 12.31ZM22.77 76.73a68.64 68.64 0 0 1 7.48-2.06 41.38 41.38 0 0 0 5.81 10.86A38.29 38.29 0 0 1 22.77 76.73Zm23.74 8.93c-3.43-1.78-6.76-6.06-9.24-12.2 2.92-0.38 6-0.65 9.24-0.76Zm0-19.93a107 107 0 0 0-11.42 1 67.17 67.17 0 0 1-1.87-13.22h13.3Zm0-19.21H33.22A67.17 67.17 0 0 1 35.09 33.3a106.9 106.9 0 0 0 11.42 1Zm0-32.17v13c-3.23-0.12-6.32-0.38-9.24-0.76C39.76 20.4 43.09 16.12 46.52 14.34Zm-10.46 0.13a41.38 41.38 0 0 0-5.81 10.86 68.62 68.62 0 0 1-7.48-2.06A38.29 38.29 0 0 1 36.06 14.47ZM18.12 29a70.27 70.27 0 0 0 10.1 3 75 75 0 0 0-2 14.46H12A37.92 37.92 0 0 1 18.12 29Zm8.13 24.45a75 75 0 0 0 2 14.46 70.26 70.26 0 0 0-10.1 3A37.92 37.92 0 0 1 12 53.48Z" fill="#000000" data-fill-palette-color="accent"></path></svg></g></svg></g><path d="M24.588 83.408L22.614 83.389 19.415 91.489C21.081 93.182 22.304 94.183 23.082 94.491V94.491C23.657 94.717 24.106 94.648 24.428 94.283 24.754 93.912 25.086 93.296 25.425 92.438V92.438L26.565 92.888 23.468 100.728 22.328 100.278C22.447 99.796 22.526 99.37 22.565 99 22.598 98.627 22.582 98.278 22.518 97.953 22.445 97.631 22.308 97.32 22.105 97.019 21.903 96.717 21.635 96.401 21.302 96.069V96.069L5.424 81.099 6.259 78.986 25.669 78.746C26.798 78.728 27.695 78.69 28.361 78.631 29.02 78.57 29.561 78.441 29.982 78.243 30.4 78.051 30.75 77.772 31.031 77.404 31.303 77.04 31.595 76.545 31.907 75.918V75.918L33.084 76.383 28.812 87.198 27.635 86.733C27.959 85.804 28.127 85.109 28.137 84.649 28.141 84.187 27.915 83.865 27.457 83.684V83.684C27.192 83.58 26.822 83.512 26.348 83.482 25.877 83.446 25.29 83.421 24.588 83.408ZM10.63 83.326L17.951 90.15 20.641 83.338 10.677 83.206ZM67.804 40.065L57.93 46.611 57.253 45.59C57.82 45.182 58.25 44.821 58.543 44.507 58.837 44.193 59.014 43.864 59.074 43.522 59.132 43.188 59.074 42.812 58.9 42.394 58.717 41.973 58.427 41.464 58.031 40.866V40.866L50.175 29.015C49.778 28.417 49.434 27.952 49.142 27.62 48.846 27.282 48.546 27.062 48.24 26.962 47.936 26.853 47.618 26.853 47.284 26.962 46.95 27.072 46.542 27.263 46.061 27.534V27.534L45.384 26.513 53.614 21.057C56.194 19.347 58.455 18.441 60.397 18.341 62.337 18.251 63.818 18.975 64.838 20.514V20.514C66.185 22.546 65.676 24.952 63.31 27.731V27.731L63.376 27.831C64.317 27.207 65.255 26.776 66.19 26.539 67.13 26.299 68.024 26.24 68.871 26.364 69.716 26.497 70.5 26.79 71.223 27.243 71.941 27.7 72.554 28.314 73.064 29.083V29.083C73.644 29.958 73.941 30.857 73.956 31.78 73.964 32.707 73.724 33.655 73.235 34.624V34.624C72.278 36.486 70.468 38.3 67.804 40.065ZM66.944 38.388V38.388C69.696 36.564 70.249 34.412 68.605 31.932V31.932C67.596 30.409 66.364 29.628 64.911 29.587V29.587C64.163 29.565 63.331 29.746 62.414 30.13 61.497 30.515 60.449 31.098 59.27 31.88V31.88L58.041 32.694 61.443 37.827C62.144 38.884 62.916 39.453 63.757 39.532 64.603 39.618 65.665 39.236 66.944 38.388ZM57.022 31.158L58.534 30.156C59.304 29.646 59.923 29.132 60.392 28.613 60.862 28.095 61.201 27.567 61.411 27.03V27.03C61.856 25.922 61.682 24.77 60.889 23.574V23.574C60.063 22.328 59.158 21.63 58.173 21.478 57.191 21.331 56.016 21.712 54.649 22.618V22.618L52.83 23.824C52.52 24.029 52.462 24.279 52.657 24.572V24.572ZM127.415 22.452L127.431 23.678 116.452 23.827 116.435 22.601C117.132 22.565 117.689 22.488 118.106 22.37 118.53 22.251 118.852 22.037 119.074 21.729 119.296 21.42 119.443 20.983 119.515 20.417 119.587 19.852 119.616 19.087 119.603 18.124V18.124L119.435 5.76C119.423 4.897 119.381 4.183 119.306 3.619 119.226 3.056 119.08 2.613 118.87 2.29 118.66 1.967 118.364 1.739 117.984 1.605 117.603 1.477 117.094 1.397 116.456 1.366V1.366L116.439 0.141 126.801 0 126.817 1.225C126.187 1.274 125.683 1.367 125.306 1.505 124.93 1.65 124.641 1.886 124.439 2.214 124.238 2.543 124.104 2.99 124.039 3.555 123.973 4.121 123.947 4.835 123.958 5.699V5.699L124.126 18.063C124.139 19.026 124.186 19.789 124.267 20.353 124.348 20.916 124.506 21.349 124.743 21.652 124.986 21.954 125.318 22.159 125.738 22.266 126.158 22.373 126.717 22.435 127.415 22.452ZM178.532 30.757L176.339 34.18C175.92 34.834 175.614 35.38 175.421 35.816 175.228 36.253 175.146 36.638 175.176 36.973 175.197 37.31 175.343 37.624 175.614 37.916 175.879 38.204 176.27 38.53 176.787 38.893V38.893L176.125 39.924 167.14 34.167 167.802 33.135C168.387 33.478 168.888 33.724 169.305 33.874 169.722 34.023 170.094 34.052 170.42 33.961 170.743 33.876 171.058 33.668 171.365 33.336 171.676 32.999 172.025 32.528 172.412 31.924V31.924L180.083 19.952C180.46 19.365 180.739 18.861 180.921 18.442 181.109 18.026 181.182 17.659 181.141 17.34 181.101 17.022 180.948 16.719 180.683 16.431 180.421 16.137 180.041 15.807 179.543 15.44V15.44L180.204 14.408 189.138 20.133 188.477 21.165C187.879 20.806 187.375 20.558 186.966 20.422 186.56 20.28 186.19 20.26 185.856 20.362 185.523 20.463 185.198 20.693 184.882 21.051 184.566 21.409 184.197 21.917 183.774 22.577V22.577L180.091 28.324 191.415 25.427C192.088 25.25 192.52 25.014 192.71 24.718V24.718C192.832 24.527 192.799 24.301 192.612 24.039 192.428 23.772 192.001 23.423 191.33 22.993V22.993L191.991 21.961 199.063 26.493 198.418 27.5C198.027 27.273 197.673 27.093 197.355 26.961 197.034 26.834 196.675 26.766 196.279 26.756 195.886 26.741 195.41 26.783 194.85 26.882 194.287 26.971 193.579 27.117 192.724 27.318V27.318L185.019 29.185 186.696 43.337C186.773 44.017 186.963 44.601 187.267 45.087 187.576 45.577 188.065 46.064 188.733 46.548V46.548L188.072 47.579 178.483 41.435 179.144 40.403C179.869 40.836 180.417 41.1 180.789 41.197 181.171 41.291 181.438 41.218 181.592 40.978V40.978C181.646 40.894 181.684 40.804 181.706 40.708 181.734 40.615 181.753 40.493 181.763 40.342 181.773 40.19 181.773 39.993 181.764 39.75 181.744 39.509 181.708 39.202 181.656 38.829V38.829L180.684 30.243ZM222.509 90.284L223.979 88.966 220.875 80.83C218.503 80.704 216.925 80.79 216.143 81.088V81.088C215.566 81.309 215.282 81.662 215.29 82.15 215.3 82.644 215.47 83.322 215.799 84.184V84.184L214.654 84.621 211.65 76.745 212.795 76.309C213.032 76.744 213.261 77.112 213.482 77.411 213.709 77.709 213.956 77.956 214.223 78.152 214.494 78.341 214.806 78.478 215.159 78.563 215.511 78.649 215.923 78.702 216.392 78.722V78.722L238.211 79.058 239.021 81.181 224.857 94.454C224.036 95.229 223.4 95.863 222.948 96.355 222.502 96.845 222.191 97.305 222.014 97.736 221.834 98.159 221.765 98.602 221.805 99.063 221.85 99.515 221.968 100.078 222.161 100.75V100.75L220.979 101.201 216.835 90.337 218.017 89.886C218.405 90.791 218.75 91.416 219.053 91.763 219.362 92.107 219.746 92.191 220.205 92.016V92.016C220.472 91.914 220.79 91.715 221.16 91.417 221.533 91.126 221.982 90.748 222.509 90.284ZM232.867 80.926L222.859 80.83 225.469 87.673 232.913 81.047ZM19.322 170.479L20.777 169.144 17.578 161.044C15.204 160.946 13.624 161.052 12.84 161.362V161.362C12.271 161.587 11.994 161.943 12.008 162.43 12.024 162.923 12.202 163.6 12.541 164.458V164.458L11.401 164.908 8.305 157.068 9.445 156.618C9.687 157.051 9.92 157.416 10.145 157.713 10.375 158.007 10.625 158.252 10.895 158.445 11.168 158.63 11.481 158.764 11.835 158.845 12.188 158.927 12.6 158.975 13.07 158.989V158.989L34.892 159.069 35.726 161.182 21.719 174.621C20.907 175.406 20.279 176.047 19.832 176.544 19.39 177.033 19.083 177.494 18.911 177.926 18.738 178.358 18.675 178.805 18.722 179.265 18.771 179.717 18.897 180.278 19.097 180.949V180.949L17.92 181.413 13.649 170.599 14.826 170.134C15.224 171.033 15.576 171.655 15.883 171.998 16.196 172.338 16.582 172.418 17.039 172.238V172.238C17.304 172.133 17.62 171.93 17.987 171.628 18.356 171.332 18.801 170.949 19.322 170.479ZM29.569 161L19.561 161.021 22.252 167.833 29.617 161.121ZM58.788 225.325L48.922 218.785 49.599 217.764C50.195 218.127 50.695 218.383 51.099 218.531 51.503 218.679 51.872 218.717 52.208 218.644 52.541 218.562 52.866 218.359 53.184 218.036 53.5 217.704 53.856 217.238 54.253 216.641V216.641L62.109 204.789C62.505 204.192 62.8 203.693 62.992 203.295 63.188 202.891 63.273 202.529 63.246 202.208 63.229 201.886 63.105 201.592 62.874 201.328 62.639 201.068 62.305 200.767 61.871 200.424V200.424L62.548 199.402 70.778 204.858C73.358 206.568 75.068 208.299 75.907 210.051 76.755 211.801 76.669 213.445 75.649 214.985V214.985C74.298 217.022 71.884 217.49 68.407 216.388V216.388L68.341 216.488C69.282 217.112 70.044 217.808 70.626 218.576 71.214 219.349 71.613 220.147 71.823 220.972 72.036 221.806 72.074 222.644 71.938 223.486 71.796 224.325 71.47 225.129 70.96 225.899V225.899C70.38 226.774 69.665 227.395 68.815 227.764 67.97 228.137 67.006 228.287 65.923 228.214V228.214C63.835 228.057 61.457 227.094 58.788 225.325ZM60.006 223.885V223.885C62.758 225.709 64.956 225.381 66.6 222.901V222.901C67.609 221.378 67.85 219.94 67.321 218.585V218.585C67.045 217.884 66.554 217.188 65.848 216.497 65.137 215.802 64.192 215.064 63.012 214.282V214.282L61.783 213.468 58.381 218.6C57.68 219.658 57.457 220.589 57.711 221.396 57.962 222.208 58.727 223.037 60.006 223.885ZM62.802 211.931L64.313 212.933C65.083 213.443 65.798 213.814 66.458 214.044 67.118 214.274 67.736 214.382 68.313 214.365V214.365C69.507 214.344 70.5 213.735 71.293 212.539V212.539C72.119 211.293 72.408 210.19 72.16 209.229 71.916 208.262 71.111 207.326 69.743 206.419V206.419L67.924 205.214C67.614 205.008 67.362 205.052 67.168 205.346V205.346ZM127.227 243.206L127.21 244.431 116.231 244.282 116.248 243.057C116.945 243.04 117.504 242.978 117.924 242.87 118.351 242.763 118.679 242.558 118.909 242.256 119.139 241.953 119.298 241.52 119.385 240.957 119.473 240.394 119.523 239.63 119.536 238.667V238.667L119.704 226.303C119.715 225.44 119.689 224.725 119.623 224.16 119.564 223.594 119.434 223.147 119.233 222.819 119.031 222.491 118.742 222.258 118.365 222.12 117.989 221.982 117.482 221.885 116.845 221.83V221.83L116.861 220.604 127.223 220.745 127.206 221.971C126.575 222.009 126.069 222.091 125.688 222.219 125.301 222.347 125.006 222.572 124.802 222.895 124.592 223.217 124.446 223.66 124.366 224.224 124.285 224.788 124.239 225.501 124.227 226.365V226.365L124.059 238.729C124.046 239.692 124.072 240.456 124.138 241.022 124.203 241.587 124.35 242.024 124.578 242.333 124.813 242.642 125.139 242.855 125.556 242.974 125.973 243.093 126.53 243.17 127.227 243.206ZM177.6 219.592L179.793 223.015C180.212 223.67 180.58 224.176 180.896 224.533 181.212 224.891 181.528 225.126 181.845 225.239 182.159 225.361 182.503 225.361 182.876 225.241 183.254 225.117 183.716 224.896 184.261 224.578V224.578L184.923 225.61 175.937 231.367 175.276 230.335C175.832 229.947 176.265 229.595 176.575 229.278 176.885 228.961 177.069 228.638 177.126 228.309 177.18 227.975 177.121 227.599 176.948 227.181 176.771 226.758 176.489 226.244 176.102 225.64V225.64L168.432 213.668C168.055 213.081 167.715 212.617 167.409 212.276 167.11 211.932 166.807 211.711 166.501 211.616 166.195 211.52 165.856 211.532 165.483 211.652 165.111 211.773 164.652 211.98 164.106 212.274V212.274L163.445 211.242 172.38 205.517 173.041 206.549C172.465 206.942 172.029 207.297 171.734 207.612 171.435 207.921 171.263 208.249 171.216 208.595 171.173 208.946 171.247 209.34 171.44 209.776 171.633 210.213 171.939 210.758 172.359 211.412V211.412L176.041 217.159 178.14 205.661C178.262 204.976 178.227 204.485 178.037 204.188V204.188C177.915 203.998 177.696 203.934 177.38 203.994 177.06 204.049 176.565 204.292 175.894 204.722V204.722L175.233 203.69 182.297 199.164 182.942 200.17C182.578 200.427 182.271 200.675 182.022 200.914 181.769 201.147 181.555 201.441 181.381 201.798 181.207 202.154 181.046 202.604 180.897 203.149 180.744 203.697 180.582 204.404 180.411 205.271V205.271L178.882 213.043 192.44 217.432C193.09 217.647 193.7 217.718 194.268 217.645 194.843 217.569 195.487 217.33 196.2 216.929V216.929L196.861 217.961 187.28 224.099 186.619 223.067C187.315 222.59 187.784 222.202 188.027 221.904 188.273 221.598 188.318 221.324 188.164 221.083V221.083C188.11 220.999 188.044 220.927 187.966 220.867 187.894 220.803 187.791 220.735 187.658 220.662 187.524 220.59 187.342 220.509 187.112 220.42 186.891 220.333 186.599 220.236 186.238 220.128V220.128L178.032 217.422ZM227.8 163.54L225.825 163.544 222.722 171.68C224.408 173.354 225.645 174.342 226.433 174.642V174.642C227.004 174.86 227.449 174.785 227.767 174.415 228.088 174.04 228.413 173.421 228.742 172.559V172.559L229.887 172.995 226.883 180.871 225.738 180.434C225.851 179.952 225.925 179.525 225.96 179.154 225.989 178.781 225.969 178.432 225.901 178.108 225.824 177.787 225.683 177.477 225.477 177.178 225.271 176.879 224.999 176.566 224.662 176.238V176.238L208.61 161.456 209.42 159.333 228.826 158.865C229.954 158.834 230.85 158.785 231.516 158.719 232.172 158.656 232.71 158.524 233.128 158.321 233.547 158.118 233.895 157.831 234.171 157.46 234.439 157.093 234.725 156.594 235.03 155.964V155.964L236.212 156.415 232.068 167.279 230.886 166.828C231.199 165.895 231.358 165.199 231.363 164.739 231.361 164.276 231.131 163.957 230.672 163.782V163.782C230.405 163.68 230.034 163.617 229.56 163.593 229.089 163.562 228.502 163.544 227.8 163.54ZM213.841 163.622L221.242 170.359 223.852 163.516 213.887 163.501ZM3.271 125.904C3.271 120.842 7.375 116.738 12.437 116.738 17.498 116.738 21.602 120.842 21.602 125.904 21.602 130.965 17.498 135.069 12.437 135.069 7.375 135.069 3.271 130.965 3.271 125.904ZM222.829 125.904C222.829 120.842 226.933 116.738 231.995 116.738 237.057 116.738 241.16 120.842 241.16 125.904 241.16 130.965 237.057 135.069 231.995 135.069 226.933 135.069 222.829 130.965 222.829 125.904Z" fill="#000000" data-fill-palette-color="accent"></path></svg></g></svg></g></svg></g><defs></defs></svg><rect width="395.52" height="140.30442843612778" fill="none" stroke="none" visibility="hidden"></rect></g></svg></g></svg>